<?xml version="1.0" standalone="no"?>
<!DOCTYPE svg PUBLIC "-//W3C//DTD SVG 20010904//EN"
 "http://www.w3.org/TR/2001/REC-SVG-20010904/DTD/svg10.dtd">
<svg version="1.0" xmlns="http://www.w3.org/2000/svg"
 width="1024.000000pt" height="1024.000000pt" viewBox="0 0 1024.000000 1024.000000"
 preserveAspectRatio="xMidYMid meet">
<metadata>
Created by potrace 1.16, written by Peter Selinger 2001-2019
</metadata>
<g transform="translate(0.000000,1024.000000) scale(0.100000,-0.100000)"
fill="#000000" stroke="none">
<path d="M0 5120 l0 -5120 5120 0 5120 0 0 5120 0 5120 -5120 0 -5120 0 0
-5120z m9052 3093 c-48 -61 -420 -480 -662 -747 -124 -137 -233 -258 -242
-271 -17 -22 -17 -23 10 -29 15 -3 104 -26 197 -51 94 -25 235 -62 315 -81 80
-20 147 -38 149 -40 3 -3 -126 -146 -285 -314 -39 -41 -129 -138 -201 -215
-71 -77 -203 -218 -292 -314 -117 -125 -159 -176 -150 -181 8 -5 66 -23 129
-40 212 -60 229 -65 235 -72 4 -3 -241 -129 -543 -280 l-549 -273 222 330
c270 404 634 980 624 989 -5 5 -766 243 -803 252 -22 5 -27 4 -23 -7 3 -8 17
-49 32 -92 l27 -78 -37 -56 c-107 -162 -300 -303 -530 -388 -101 -38 -273 -85
-310 -85 -17 0 -27 23 -70 160 -39 129 -52 159 -65 155 -11 -5 -12 -3 -3 6 13
13 15 6 -107 389 -49 151 -125 394 -170 540 -46 146 -93 289 -107 318 -40 85
-106 124 -238 141 -42 5 -82 14 -88 20 -16 16 1266 15 1296 0 71 -37 84 -68
239 -571 18 -60 37 -108 41 -108 5 0 83 39 175 87 563 291 928 482 1147 598
247 132 657 344 663 345 2 0 -10 -17 -26 -37z m-4430 -326 c41 -28 57 -60 93
-185 18 -65 80 -274 138 -467 201 -672 257 -862 257 -876 0 -8 -20 -75 -45
-149 -25 -74 -43 -141 -40 -147 6 -16 -32 -16 -237 -3 -237 16 -657 62 -663
72 -2 4 -93 300 -101 328 -3 14 -11 31 -17 38 -5 7 -7 15 -5 18 3 3 -7 44 -22
92 -15 48 -75 242 -134 432 -208 668 -224 717 -257 754 -42 48 -99 73 -199 86
-193 26 -98 31 550 28 614 -3 657 -4 682 -21z m510 -1459 c-8 -8 -9 -4 -5 13
4 13 8 18 11 10 2 -7 -1 -18 -6 -23z m1075 -20 c-3 -8 -6 -5 -6 6 -1 11 2 17
5 13 3 -3 4 -12 1 -19z m-2240 -244 c-3 -3 -12 -4 -19 -1 -8 3 -5 6 6 6 11 1
17 -2 13 -5z m60 -10 c-3 -3 -12 -4 -19 -1 -8 3 -5 6 6 6 11 1 17 -2 13 -5z
m2230 0 c-3 -3 -12 -4 -19 -1 -8 3 -5 6 6 6 11 1 17 -2 13 -5z m-54 -11 c-7
-2 -21 -2 -30 0 -10 3 -4 5 12 5 17 0 24 -2 18 -5z m-60 -10 c-7 -2 -19 -2
-25 0 -7 3 -2 5 12 5 14 0 19 -2 13 -5z m-2138 -527 c622 -221 622 -222 599
-234 -39 -21 -250 -80 -349 -98 -152 -28 -394 -26 -500 4 -114 33 -190 77
-266 153 -78 78 -138 189 -169 313 -32 126 -43 121 143 55 89 -31 333 -118
542 -193z m2910 122 c-71 -251 -224 -402 -461 -459 -78 -19 -109 -21 -254 -16
-111 4 -196 12 -260 26 -106 23 -320 89 -320 99 0 7 272 106 910 333 184 66
351 125 370 132 32 12 35 11 38 -6 2 -10 -8 -59 -23 -109z m-4338 -335 c95
-63 162 -132 246 -257 90 -134 207 -262 306 -336 75 -56 213 -130 290 -155 32
-10 49 -20 41 -25 -6 -4 -22 -43 -35 -86 -13 -43 -48 -162 -78 -264 -31 -102
-106 -360 -167 -575 -62 -214 -118 -399 -125 -411 -8 -12 -29 -28 -48 -38 -31
-14 -94 -16 -579 -16 l-545 0 69 233 c253 852 557 1906 560 1943 1 13 4 24 6
24 2 0 28 -16 59 -37z m5154 -31 c9 -31 104 -363 212 -737 340 -1181 398
-1387 395 -1390 -2 -2 -248 -4 -548 -6 -405 -2 -550 0 -566 9 -48 26 -70 68
-103 198 -19 71 -85 309 -148 529 -63 220 -129 452 -147 515 -18 63 -36 125
-40 137 -6 18 -1 23 31 33 62 20 211 97 266 137 130 95 230 201 336 357 71
103 161 199 240 255 24 17 47 29 50 25 3 -3 13 -31 22 -62z m-2407 -387 c76
-22 245 -93 189 -79 -21 5 -21 4 8 -88 16 -51 52 -169 80 -263 28 -93 68 -224
89 -290 21 -66 64 -203 95 -305 31 -102 76 -246 100 -320 36 -110 91 -284 121
-382 5 -17 -42 -18 -895 -18 -496 0 -901 2 -901 4 0 2 57 172 126 377 l126
373 -7 130 c-6 123 -8 133 -33 159 -16 16 -21 27 -12 25 11 -2 15 11 17 62 2
36 1 74 -1 86 -6 21 -51 78 -63 80 -5 0 -15 3 -23 7 -8 3 -22 5 -30 5 -8 0
-24 3 -35 6 -13 5 -12 2 5 -8 l25 -15 -33 -1 c-20 0 -31 4 -27 10 3 6 -2 10
-12 11 -16 0 -16 1 2 9 19 8 19 9 -2 9 -12 1 -23 7 -26 14 -3 9 -7 9 -19 0
-19 -16 -28 -7 -28 29 0 28 2 29 43 28 69 -3 74 0 34 21 -23 12 -35 24 -31 31
5 8 1 9 -10 5 -10 -4 -27 -7 -37 -7 -11 0 -18 -4 -15 -9 4 -5 0 -12 -6 -14 -7
-3 -3 -6 10 -6 12 -1 22 4 22 9 0 6 5 10 11 10 5 0 8 -4 4 -9 -3 -5 3 -12 12
-14 12 -3 8 -5 -9 -6 -15 0 -32 -9 -37 -18 -9 -16 -12 -14 -23 14 -12 31 -14
32 -53 27 -22 -3 28 13 110 35 187 49 223 62 438 155 191 83 325 131 408 145
78 14 195 4 293 -24z m347 -139 c41 -19 70 -35 64 -35 -11 0 -153 67 -144 68
4 1 40 -14 80 -33z m119 -52 l25 -15 -25 7 c-14 3 -29 10 -34 15 -16 14 6 10
34 -7z m60 -24 c8 -5 11 -10 5 -10 -5 0 -17 5 -25 10 -8 5 -10 10 -5 10 6 0
17 -5 25 -10z m140 -45 c19 -7 28 -13 20 -13 -8 0 -31 6 -50 13 -19 7 -28 13
-20 13 8 0 31 -6 50 -13z m67 -21 c-3 -3 -12 -4 -19 -1 -8 3 -5 6 6 6 11 1 17
-2 13 -5z m46 -11 c-7 -2 -19 -2 -25 0 -7 3 -2 5 12 5 14 0 19 -2 13 -5z
m-2080 -30 c-7 -2 -19 -2 -25 0 -7 3 -2 5 12 5 14 0 19 -2 13 -5z m-56 -9 c-3
-3 -12 -4 -19 -1 -8 3 -5 6 6 6 11 1 17 -2 13 -5z m-54 -11 c-7 -2 -19 -2 -25
0 -7 3 -2 5 12 5 14 0 19 -2 13 -5z m-50 -10 c-7 -2 -21 -2 -30 0 -10 3 -4 5
12 5 17 0 24 -2 18 -5z m-80 -10 c-7 -2 -21 -2 -30 0 -10 3 -4 5 12 5 17 0 24
-2 18 -5z m-120 -10 c-7 -2 -19 -2 -25 0 -7 3 -2 5 12 5 14 0 19 -2 13 -5z
m671 -85 c-3 -4 -9 -8 -15 -8 -5 0 -9 4 -9 8 0 5 7 9 15 9 8 0 12 -4 9 -9z
m-58 -17 c-3 -5 1 -11 9 -15 8 -3 15 0 15 6 0 6 6 5 17 -3 15 -12 16 -12 8 1
-5 9 1 7 15 -5 13 -11 20 -14 16 -7 -4 7 -2 12 7 12 17 0 27 -21 27 -56 0 -20
-5 -24 -27 -24 -22 0 -25 2 -13 10 11 7 12 10 2 10 -21 0 -45 27 -29 33 6 3 2
6 -10 7 -13 2 -29 3 -35 4 -16 1 -23 36 -8 36 6 0 9 -4 6 -9z m40 -113 l29
-33 -32 29 c-31 28 -38 36 -30 36 2 0 16 -15 33 -32z m14 22 c0 -5 -2 -10 -4
-10 -3 0 -8 5 -11 10 -3 6 -1 10 4 10 6 0 11 -4 11 -10z m30 -1745 l0 -405
-23 -5 c-12 -3 -56 -5 -97 -3 l-75 3 -3 395 c-1 217 0 401 3 407 3 9 33 13
100 13 l95 0 0 -405z m897 -8 l-2 -402 -92 -3 -92 -3 -3 403 c-2 222 0 405 3
408 4 3 48 4 98 2 l91 -3 -3 -402z m-2314 373 l57 0 0 -384 c0 -341 -2 -385
-16 -390 -23 -9 -147 -7 -161 2 -10 6 -13 89 -15 338 l-3 329 -58 -235 c-31
-129 -68 -280 -80 -335 l-23 -100 -125 3 c-68 2 -127 6 -130 10 -4 4 -34 131
-69 282 -94 420 -88 417 -89 38 l-1 -328 -95 0 -95 0 0 385 0 385 170 0 169 0
11 -37 c11 -40 39 -168 94 -423 19 -85 36 -148 39 -140 6 15 44 192 98 450 17
79 33 148 36 153 4 6 51 7 117 3 61 -3 137 -6 169 -6z m3595 0 l52 0 0 -384 0
-384 -62 -7 c-35 -4 -81 -5 -103 -3 l-40 3 -3 158 -3 157 -129 0 -130 0 0
-154 c0 -131 -2 -155 -16 -160 -20 -8 -89 -8 -148 0 l-46 7 0 383 0 384 105 0
105 0 0 -155 0 -155 128 0 127 0 -3 146 c-2 81 0 154 3 162 4 12 16 13 58 8
28 -3 76 -6 105 -6z m-2608 -100 l0 -99 88 -3 87 -3 3 -44 c6 -88 3 -91 -93
-91 l-86 0 3 -147 3 -148 83 -9 83 -9 -3 -61 -3 -61 -125 0 c-137 1 -168 9
-204 58 -19 26 -21 44 -24 203 l-3 174 -45 0 -45 0 3 68 3 67 43 0 42 0 0 103
0 102 95 0 95 0 0 -100z m1595 -126 c71 -33 104 -116 105 -256 0 -139 -29
-218 -97 -264 -38 -25 -125 -38 -194 -29 l-49 7 0 62 0 62 35 -4 c56 -7 82 4
94 39 16 46 14 193 -3 234 -15 35 -16 35 -76 35 l-61 0 3 63 3 62 50 6 c73 10
148 3 190 -17z m1592 4 c69 -21 113 -115 113 -243 l0 -72 -127 -6 c-71 -4
-154 -7 -185 -7 -62 0 -63 -1 -47 -48 15 -43 50 -52 200 -52 l129 0 0 -59 0
-58 -132 -5 c-303 -11 -368 19 -399 189 -16 81 -4 206 25 269 31 66 77 95 165
104 80 8 214 2 258 -12z m1015 1 c87 -22 134 -130 126 -291 -4 -83 -9 -107
-34 -155 -24 -46 -38 -62 -78 -82 -45 -23 -59 -25 -170 -24 -127 1 -166 10
-204 46 -59 55 -88 178 -71 309 17 138 67 195 183 208 70 8 194 2 248 -11z
m-4584 -9 c57 -35 64 -67 64 -315 l1 -220 -54 -7 c-30 -4 -67 -5 -84 -3 -16 2
-33 4 -37 4 -5 1 -8 53 -8 116 l0 115 -84 0 c-89 0 -96 -4 -96 -55 0 -49 8
-55 76 -55 l64 0 0 -60 0 -60 -57 -2 c-164 -7 -213 8 -244 75 -24 55 -25 150
-1 196 33 65 56 74 207 79 131 4 135 5 135 26 0 12 -6 31 -14 42 -13 17 -29
19 -145 22 l-131 4 0 59 0 59 188 0 c170 0 190 -2 220 -20z m1367 -10 c57 -53
59 -66 60 -310 l0 -225 -90 0 -90 0 -3 120 -3 120 -84 -3 c-94 -4 -103 -11
-91 -77 l7 -34 66 -3 67 -3 -3 -55 c-1 -30 -8 -59 -14 -63 -7 -4 -55 -6 -107
-5 -111 4 -154 23 -182 78 -23 45 -24 159 -2 205 28 60 53 69 207 73 75 2 137
8 137 12 0 18 -22 65 -33 73 -7 4 -66 6 -132 5 l-120 -3 -3 63 -3 63 195 -3
c192 -3 195 -3 221 -28z m2765 -35 l0 -65 -95 0 -95 0 -2 -217 -3 -218 -90 0
-90 0 -3 283 -2 282 190 0 190 0 0 -65z"/>
<path d="M4432 4740 c0 -14 2 -19 5 -12 2 6 2 18 0 25 -3 6 -5 1 -5 -13z"/>
<path d="M4295 4710 c-4 -6 -11 -8 -16 -5 -5 4 -9 -2 -9 -12 0 -10 -4 -14 -8
-8 -11 15 -39 17 -45 3 -5 -16 49 -22 58 -7 4 5 10 7 15 4 4 -3 13 2 19 9 8 9
8 16 2 20 -5 4 -12 2 -16 -4z"/>
<path d="M4431 4644 c0 -11 3 -14 6 -6 3 7 2 16 -1 19 -3 4 -6 -2 -5 -13z"/>
<path d="M4177 4603 c-4 -3 -7 -13 -7 -21 0 -18 13 -7 16 13 2 17 1 18 -9 8z"/>
<path d="M6891 2693 c-12 -10 -24 -35 -28 -55 l-6 -38 97 0 c53 0 96 3 96 8 0
28 -24 83 -40 92 -30 16 -95 12 -119 -7z"/>
<path d="M7952 2713 c-44 -9 -57 -46 -57 -173 0 -93 3 -121 17 -142 35 -54
115 -42 139 20 6 15 11 70 12 122 0 101 -19 170 -47 170 -8 0 -20 2 -28 4 -7
2 -23 1 -36 -1z"/>
</g>
</svg>
